<?xml version="1.0" encoding="UTF-8" standalone="no"?>
<!-- Created with Inkscape (http://www.inkscape.org/) -->

<svg
   xmlns:dc="http://purl.org/dc/elements/1.1/"
   xmlns:cc="http://creativecommons.org/ns#"
   xmlns:rdf="http://www.w3.org/1999/02/22-rdf-syntax-ns#"
   xmlns:svg="http://www.w3.org/2000/svg"
   xmlns="http://www.w3.org/2000/svg"
   xmlns:sodipodi="http://sodipodi.sourceforge.net/DTD/sodipodi-0.dtd"
   xmlns:inkscape="http://www.inkscape.org/namespaces/inkscape"
   width="18"
   height="17.999998"
   viewBox="0 0 18 17.999999"
   id="svg2"
   version="1.1"
   inkscape:version="0.91+devel+osxmenu r12922"
   sodipodi:docname="CopyToClipboardTemplate.svg">
  <defs
     id="defs4" />
  <sodipodi:namedview
     id="base"
     pagecolor="#ffffff"
     bordercolor="#666666"
     borderopacity="1.0"
     inkscape:pageopacity="0.0"
     inkscape:pageshadow="2"
     inkscape:zoom="5.6"
     inkscape:cx="15.751929"
     inkscape:cy="22.332425"
     inkscape:document-units="px"
     inkscape:current-layer="layer1"
     showgrid="false"
     units="px"
     fit-margin-top="0"
     fit-margin-left="0"
     fit-margin-right="0"
     fit-margin-bottom="0"
     inkscape:showpageshadow="false"
     inkscape:window-width="1920"
     inkscape:window-height="982"
     inkscape:window-x="1952"
     inkscape:window-y="23"
     inkscape:window-maximized="0" />
  <metadata
     id="metadata7">
    <rdf:RDF>
      <cc:Work
         rdf:about="">
        <dc:format>image/svg+xml</dc:format>
        <dc:type
           rdf:resource="http://purl.org/dc/dcmitype/StillImage" />
        <dc:title></dc:title>
      </cc:Work>
    </rdf:RDF>
  </metadata>
  <g
     inkscape:label="Layer 1"
     inkscape:groupmode="layer"
     id="layer1"
     transform="translate(-63.500004,-183.507)">
    <path
       inkscape:connector-curvature="0"
       id="path3341"
       style="font-style:normal;font-variant:normal;font-weight:normal;font-stretch:normal;font-size:19.19999886px;line-height:125%;font-family:github-octicons;-inkscape-font-specification:'github-octicons, Normal';font-variant-ligatures:none;font-variant-caps:normal;font-variant-numeric:normal;text-align:start;letter-spacing:0px;word-spacing:0px;writing-mode:lr-tb;text-anchor:start;fill:#000000;fill-opacity:1;stroke:none;stroke-width:0.26458329px;stroke-linecap:butt;stroke-linejoin:miter;stroke-opacity:1"
       d="m 66.500004,197.90699 4.8,0 0,1.2 -4.8,0 0,-1.2 z m 5.999999,-7.19999 -5.999999,0 0,1.2 5.999999,0 0,-1.2 z m 2.4,3.59999 0,-2.39999 -3.599999,3.59999 3.599999,3.6 0,-2.4 6,0 0,-2.4 -6,0 z m -5.4,-1.2 -2.999999,0 0,1.2 2.999999,0 0,-1.2 z m -2.999999,3.6 2.999999,0 0,-1.2 -2.999999,0 0,1.2 z m 10.8,1.2 1.199999,0 0,2.4 q -0.01875,0.50625 -0.356249,0.84375 -0.337501,0.3375 -0.84375,0.35625 l -12,0 q -0.506249,-0.0188 -0.84375,-0.35625 -0.3375,-0.3375 -0.35625,-0.84375 l 0,-13.19999 q 0.01875,-0.50625 0.35625,-0.84375 0.337501,-0.3375 0.84375,-0.35625 l 3.6,0 q 0.01875,-1.03125 0.693749,-1.70625 0.675,-0.675 1.70625,-0.69375 1.03125,0.0187 1.70625,0.69375 0.675,0.675 0.69375,1.70625 l 3.6,0 q 0.50625,0.0187 0.84375,0.35625 0.3375,0.3375 0.35625,0.84375 l 0,5.99999 -1.2,0 0,-3.59999 -11.999999,0 0,10.79999 11.999999,0 0,-2.4 z m -10.8,-9.59999 9.599999,0 q -0.01875,-0.50625 -0.35625,-0.84375 -0.3375,-0.3375 -0.84375,-0.35625 l -1.2,0 q -0.50625,-0.0188 -0.84375,-0.35625 -0.3375,-0.3375 -0.35625,-0.84375 -0.01875,-0.50625 -0.35625,-0.84375 -0.3375,-0.3375 -0.84375,-0.3375 -0.50625,0 -0.84375,0.3375 -0.3375,0.3375 -0.35625,0.84375 -0.01875,0.50625 -0.35625,0.84375 -0.3375,0.3375 -0.843749,0.35625 l -1.2,0 q -0.50625,0.0188 -0.84375,0.35625 -0.3375,0.3375 -0.35625,0.84375 z" />
  </g>
</svg>
